<?xml version="1.0" encoding="UTF-8" standalone="no"?>
<svg
   height="16px"
   viewBox="0 0 16 16"
   width="16px"
   version="1.1"
   id="svg1"
   xml:space="preserve"
   xmlns="http://www.w3.org/2000/svg"
   xmlns:svg="http://www.w3.org/2000/svg"><defs
     id="defs1"><clipPath
       clipPathUnits="userSpaceOnUse"
       id="clipPath22"><path
         id="path22"
         style="fill:#ff0000;fill-opacity:1;fill-rule:nonzero;stroke:none"
         d="m 0,0 v 7.5429688 c 0.20690556,-0.103936 0.43294854,-0.07834 0.6015625,0.066406 0.5634927,-0.079093 1.1257544,-0.1605177 1.6914063,-0.2226562 0.083434,-0.00701 0.1664441,-0.016106 0.25,-0.021484 0.067958,-0.00437 0.1313084,-0.00845 0.1933593,-0.00977 0.062051,-0.00131 0.124308,-7.46e-5 0.1914063,0.00195 0.0748,0.00226 0.1965174,0.0086 0.2734375,0.023437 0.049885,0.00962 0.099144,0.024805 0.1484375,0.037109 0.4184293,0.1044444 0.3875669,0.2301712 0.1972656,0.3671874 0.1686257,-0.00384 0.3371964,-0.00848 0.5058594,-0.00977 0.1220013,-9.263e-4 0.2838644,-7.68e-5 0.4082031,0.00586 0.051565,0.00246 0.1028112,0.00795 0.1542969,0.011719 0.1938384,0.049729 0.3475281,0.075614 0.4589844,0.1699218 0.2143496,-0.00608 0.428274,-0.011895 0.6425781,-0.019531 0.3692463,-0.015035 0.3322111,-0.013544 0.6914062,-0.03125 0.2554347,-0.012591 0.5118187,-0.030079 0.7675781,-0.035156 0.062575,-0.00124 0.1249134,9.92e-5 0.1875,0 0.1205099,0.00918 0.2445827,0.010334 0.359375,0.056641 0.082244,0.033176 0.1605972,0.076245 0.2304688,0.1308593 0.1273035,0.099505 0.1883297,0.2209417 0.2402344,0.3691407 0.014114,0.040323 0.015437,0.083033 0.023437,0.125 0.00562,0.067209 0.00624,0.133855 0.00195,0.2011718 -0.00329,0.062604 -0.00661,0.1251962 -0.013672,0.1875 -0.0042,0.038651 -0.010475,0.078243 -0.00977,0.1171875 -0.00107,0.072561 -0.00279,0.1442891 -0.00586,0.2167969 -0.0043,0.099218 -0.00985,0.1996863 -0.015625,0.2988281 -0.00457,0.1182677 -0.011926,0.2360869 -0.027344,0.3535157 -0.00955,0.072184 -0.021424,0.1441872 -0.027344,0.2167972 -0.00436,0.08081 0.00691,0.161627 0.011719,0.242187 0.010596,0.119051 0.020278,0.236848 0.035156,0.355469 0.017559,0.156975 0.04151,0.314167 0.0625,0.470703 0.023736,0.19289 0.040762,0.385654 0.044922,0.580078 0.00188,0.155063 3.737e-4,0.30983 -0.00391,0.464844 -0.0054,0.155231 -0.014635,0.310354 -0.03125,0.464844 -0.02026,0.185193 -0.044914,0.371587 -0.066406,0.55664 -0.024087,0.202821 -0.044269,0.405779 -0.060547,0.609375 -0.00824,0.135514 -0.013871,0.270451 -0.013672,0.40625 0.00333,0.145135 0.00873,0.290535 0.015625,0.435547 0.00466,0.115499 0.00669,0.230555 0.017578,0.345703 0.00285,0.02428 0.00625,0.04817 0.00977,0.07227 l -0.00195,0.002 c -0.011764,-0.01511 0.014572,0.02996 0.025391,0.05469 0.04019,0.09188 0.071388,0.186264 0.080078,0.287109 -0.00244,0.0677 0.00654,0.136525 -0.00586,0.203125 C 8.2169245,15.815865 8.175639,15.914956 8.1152344,16 H 15 V 0 Z" /></clipPath></defs><path
     d="M 15,1 V 3 H 1 V 1 Z m 0,4 V 7 H 1 V 5 Z M 7.125,8 C 7.617188,8 8,8.382812 8,8.875 v 6.25 C 8,15.617188 7.617188,16 7.125,16 H 0.875 C 0.382812,16 0,15.617188 0,15.125 V 8.875 C 0,8.382812 0.382812,8 0.875,8 Z M 15,9 v 2 H 9 V 9 Z m -8.5,2 h -5 C 1.5,11 1,11 1,11.5 v 1 C 1,13 1.5,13 1.5,13 h 5 c 0,0 0.5,0 0.5,-0.5 v -1 C 7,11 6.5,11 6.5,11 Z m 8.5,2 v 2 H 9 V 13 Z M 0,0"
     fill="#2e3436"
     id="path1"
     clip-path="url(#clipPath22)" /><path
     id="rect2"
     style="display:inline;fill:#2e3436;fill-opacity:1;stroke:none"
     d="M 16.94433 4.5525009 C 16.62146 4.5525009 16.361221 4.8124844 16.361221 5.135354 L 16.361221 9.5284401 C 16.361221 9.8513098 16.62146 10.111293 16.94433 10.111293 L 20.854878 10.111293 C 21.177748 10.111293 21.437987 9.8513098 21.437987 9.5284401 L 21.437987 5.135354 C 21.437987 4.8124844 21.177748 4.5525009 20.854878 4.5525009 L 16.94433 4.5525009 z M 20.369782 5.5392848 C 20.439753 5.5414433 20.506747 5.5710154 20.559602 5.6219686 C 20.620008 5.6802007 20.656655 5.7616956 20.662577 5.849688 C 20.663318 5.8632531 20.662089 5.8768663 20.661336 5.8903522 C 20.661955 5.894484 20.662577 5.8982222 20.662577 5.9025514 L 20.662577 6.2156655 C 20.662577 6.2199947 20.661955 6.2237327 20.661336 6.2278648 C 20.661534 6.2301682 20.662421 6.2323297 20.662577 6.2346422 C 20.667314 6.321343 20.641437 6.408562 20.588137 6.4745608 L 18.465374 9.1245093 C 18.409706 9.1943862 18.331114 9.2344826 18.247019 9.238369 C 18.162924 9.2409569 18.081682 9.2068322 18.02246 9.1421305 L 17.111818 8.1472137 C 17.054966 8.0850992 17.023732 8.0020677 17.023732 7.9140725 C 17.023732 7.9079056 17.024661 7.9012301 17.024972 7.8950959 C 17.024032 7.8900477 17.023732 7.88419 17.023732 7.8788302 L 17.023732 7.5670715 C 17.023732 7.5617118 17.024032 7.5558533 17.024972 7.5508059 L 17.024972 7.5494504 C 17.024534 7.5421939 17.023732 7.5350832 17.023732 7.5277628 C 17.023732 7.4397676 17.056206 7.3540237 17.113059 7.2919106 C 17.231502 7.1625065 17.423883 7.1625065 17.542326 7.2919106 L 18.222206 8.036065 L 20.131576 5.6531445 C 20.184875 5.587148 20.259465 5.5458165 20.340006 5.5406403 C 20.350074 5.5398315 20.359786 5.5389765 20.369782 5.5392848 z "
     transform="matrix(1.5742676,0,0,1.4409183,-25.749128,1.4284994)" /></svg>
