<?xml version="1.0" encoding="UTF-8"?>
<svg height="128px" viewBox="0 0 128 128" width="128px" xmlns="http://www.w3.org/2000/svg" xmlns:xlink="http://www.w3.org/1999/xlink">
    <linearGradient id="a" gradientUnits="userSpaceOnUse" x1="7.99999" x2="119.99999" y1="103.99999975" y2="103.99999975">
        <stop offset="0" stop-color="#d5d3cf"/>
        <stop offset="0.0357143" stop-color="#e4e1de"/>
        <stop offset="0.0714286" stop-color="#d5d3cf"/>
        <stop offset="0.928571" stop-color="#d5d3cf"/>
        <stop offset="0.964286" stop-color="#e4e1de"/>
        <stop offset="1" stop-color="#d5d3cf"/>
    </linearGradient>
    <filter id="b" height="100%" width="100%" x="0%" y="0%">
        <feColorMatrix in="SourceGraphic" type="matrix" values="0 0 0 0 1 0 0 0 0 1 0 0 0 0 1 0 0 0 1 0"/>
    </filter>
    <mask id="c">
        <g filter="url(#b)">
            <rect fill-opacity="0.02" height="128" width="128"/>
        </g>
    </mask>
    <clipPath id="d">
        <rect height="152" width="192"/>
    </clipPath>
    <mask id="e">
        <g filter="url(#b)">
            <rect fill-opacity="0.236" height="128" width="128"/>
        </g>
    </mask>
    <clipPath id="f">
        <rect height="152" width="192"/>
    </clipPath>
    <linearGradient id="g" gradientUnits="userSpaceOnUse">
        <stop offset="0" stop-color="#4fd2fd"/>
        <stop offset="1" stop-color="#4fd2fd" stop-opacity="0"/>
    </linearGradient>
    <linearGradient id="h" x1="93.538514" x2="58.923074" xlink:href="#g" y1="240.41721702329" y2="240.41721702329"/>
    <mask id="i">
        <g filter="url(#b)">
            <rect fill-opacity="0.236" height="128" width="128"/>
        </g>
    </mask>
    <clipPath id="j">
        <rect height="152" width="192"/>
    </clipPath>
    <linearGradient id="k" x1="36.417976" x2="21.723496" xlink:href="#g" y1="218.40357728135" y2="218.40357728135"/>
    <mask id="l">
        <g filter="url(#b)">
            <rect fill-opacity="0.236" height="128" width="128"/>
        </g>
    </mask>
    <clipPath id="m">
        <rect height="152" width="192"/>
    </clipPath>
    <mask id="n">
        <g filter="url(#b)">
            <rect fill-opacity="0.236" height="128" width="128"/>
        </g>
    </mask>
    <clipPath id="o">
        <rect height="152" width="192"/>
    </clipPath>
    <mask id="p">
        <g filter="url(#b)">
            <rect fill-opacity="0.236" height="128" width="128"/>
        </g>
    </mask>
    <clipPath id="q">
        <rect height="152" width="192"/>
    </clipPath>
    <path d="m 16 28 h 96 c 4.417969 0 8 3.582031 8 8 v 70 c 0 4.417969 -3.582031 8 -8 8 h -96 c -4.417969 0 -8 -3.582031 -8 -8 v -70 c 0 -4.417969 3.582031 -8 8 -8 z m 0 0" fill="#f6f5f4"/>
    <path d="m 56 50 h 54 v 36 h -54 z m 0 0" fill="none" stroke="#241f31" stroke-linejoin="round" stroke-width="8"/>
    <path d="m 56 50 h 54 v 36 h -54 z m 0 0" fill="#241f31"/>
    <path d="m 8 104 v 4 c 0 4.433594 3.566406 8 8 8 h 96 c 4.433594 0 8 -3.566406 8 -8 v -4 c 0 4.433594 -3.566406 8 -8 8 h -96 c -4.433594 0 -8 -3.566406 -8 -8 z m 0 0" fill="url(#a)"/>
    <g clip-path="url(#d)" mask="url(#c)" transform="matrix(1 0 0 1 -8 -16)">
        <path d="m 184 16 h -16 v 16 h 16 z m 0 0" fill="#2e3436"/>
    </g>
    <path d="m 56 38 h 54 z m 0 0" fill="none" stroke="#241f31" stroke-linejoin="round" stroke-width="8"/>
    <path d="m 18 38 h 24 v 64 h -24 z m 0 0" fill="none" stroke="#241f31" stroke-linejoin="round" stroke-width="8"/>
    <path d="m 18 38 h 24 v 64 h -24 z m 0 0" fill="#241f31"/>
    <path d="m 54 96 h 58 z m 0 0" fill="none" stroke="#241f31" stroke-linejoin="round" stroke-width="4"/>
    <path d="m 54 104 h 58 z m 0 0" fill="none" stroke="#241f31" stroke-linejoin="round" stroke-width="4"/>
    <g clip-path="url(#f)" mask="url(#e)" transform="matrix(1 0 0 1 -8 -16)">
        <path d="m 54.307681 243.07565 h 20.769233 l 5.769231 -13.269708 l 3.461539 22.500465 l 4.615385 -9.230757 h 20.769233" fill="none" stroke="#4fd2fd" stroke-miterlimit="10" stroke-width="2.30769" transform="matrix(0.975 0 0 0.989389 11.050016 -154.320666)"/>
    </g>
    <path d="m 55.874187 243.07565 h 19.202727 l 5.769231 -13.269708 l 3.461539 22.500465 l 4.615385 -9.230757 h 3.461539" fill="none" stroke="url(#h)" stroke-linecap="round" stroke-miterlimit="10" stroke-width="2.30769" transform="matrix(0.975 0 0 0.989389 3.050016 -170.320666)"/>
    <g clip-path="url(#j)" mask="url(#i)" transform="matrix(1 0 0 1 -8 -16)">
        <path d="m 19.764241 219.534717 h 8.816695 l 2.449082 -5.633739 l 1.469449 9.550489 l 1.959265 -3.91675 h 8.816695" fill="none" stroke="#4fd2fd" stroke-miterlimit="10" stroke-width="0.979632" transform="matrix(1.020791 0 0 0.930499 5.824847 -141.405705)"/>
    </g>
    <path d="m 21.7656 219.534717 h 6.815336 l 2.449082 -5.633739 l 1.469449 9.550489 l 1.959265 -3.91675 h 1.46945" fill="none" stroke="url(#k)" stroke-linecap="round" stroke-miterlimit="10" stroke-width="0.979632" transform="matrix(1.020791 0 0 0.930499 -2.175153 -157.405705)"/>
    <g clip-path="url(#m)" mask="url(#l)" transform="matrix(1 0 0 1 -8 -16)">
        <path d="m 19.764241 219.534716 h 8.816695 l 2.449082 -5.633739 l 1.469449 9.550489 l 1.959265 -3.91675 h 8.816695" fill="none" stroke="#4fd2fd" stroke-miterlimit="10" stroke-width="0.979632" transform="matrix(1.020791 0 0 0.930499 5.824847 -125.405704)"/>
    </g>
    <path d="m 21.7656 219.534716 h 6.815336 l 2.449082 -5.633739 l 1.469449 9.550489 l 1.959265 -3.91675 h 1.46945" fill="none" stroke="url(#k)" stroke-linecap="round" stroke-miterlimit="10" stroke-width="0.979632" transform="matrix(1.020791 0 0 0.930499 -2.175153 -141.405704)"/>
    <g clip-path="url(#o)" mask="url(#n)" transform="matrix(1 0 0 1 -8 -16)">
        <path d="m 19.764241 219.534716 h 8.816695 l 2.449082 -5.633739 l 1.469449 9.550489 l 1.959265 -3.91675 h 8.816695" fill="none" stroke="#4fd2fd" stroke-miterlimit="10" stroke-width="0.979632" transform="matrix(1.020791 0 0 0.930499 5.824847 -109.405704)"/>
    </g>
    <path d="m 21.7656 219.534716 h 6.815336 l 2.449082 -5.633739 l 1.469449 9.550489 l 1.959265 -3.91675 h 1.46945" fill="none" stroke="url(#k)" stroke-linecap="round" stroke-miterlimit="10" stroke-width="0.979632" transform="matrix(1.020791 0 0 0.930499 -2.175153 -125.405704)"/>
    <g clip-path="url(#q)" mask="url(#p)" transform="matrix(1 0 0 1 -8 -16)">
        <path d="m 19.764241 219.534716 h 8.816695 l 2.449082 -5.633739 l 1.469449 9.550489 l 1.959265 -3.91675 h 8.816695" fill="none" stroke="#4fd2fd" stroke-miterlimit="10" stroke-width="0.979632" transform="matrix(1.020791 0 0 0.930499 5.824847 -93.405704)"/>
    </g>
    <path d="m 21.7656 219.534716 h 6.815336 l 2.449082 -5.633739 l 1.469449 9.550489 l 1.959265 -3.91675 h 1.46945" fill="none" stroke="url(#k)" stroke-linecap="round" stroke-miterlimit="10" stroke-width="0.979632" transform="matrix(1.020791 0 0 0.930499 -2.175153 -109.405704)"/>
</svg>
